<svg xmlns="http://www.w3.org/2000/svg" version="1.1" xmlns:xlink="http://www.w3.org/1999/xlink" xmlns:svgjs="http://svgjs.dev/svgjs" width="100%" height="100%" viewBox="0 0 1000 600"><rect width="1000" height="600" x="0" y="0" fill="#2f3c7e"/><g><rect width="333.3333333333333" height="333.3333333333333" rx="13.333333333333334" ry="13.333333333333334" y="208.16104375248773" fill="#fbeaeb" transform="matrix(0.6722641262727364,0,0,0.6722641262727365,0,48.01678056695418)" x="185.93881225585938"/><path d="M403.30694432591275 389.0586269003533L319.64727691761067 389.0586269003533L319.64727691761067 449.82770127185614L299.3303616693404 449.82770127185614L299.3303616693404 299.82770404394137L405.8806221144418 299.82770404394137L405.8806221144418 316.45063470161705L319.64727691761067 316.45063470161705L319.64727691761067 372.22374630715177L403.30694432591275 372.22374630715177L403.30694432591275 389.0586269003533Z " fill="#2f3c7e" transform="matrix(0.6722641262727364,0,0,0.6722641262727365,0,48.01678056695418)"/><path d="M636.6735955453757 420.3886677414899L636.6735955453757 420.3886677414899Q622.3075265648847 420.3886677414899 613.8247048811661 412.9776004102842Q605.3190799133515 405.5665330790785 602.6054891059255 390.744398416667L602.6054891059255 390.744398416667L617.587246757009 388.25884045020103Q619.023853655058 397.53977707728023 624.086182724374 402.76172913526824Q629.1257085095939 407.9608779091603 636.7420053976639 407.9608779091603L636.7420053976639 407.9608779091603Q645.0880073768062 407.9608779091603 649.899500321066 402.2372536010599Q654.7109932653257 396.5136292929595 654.7109932653257 385.4312332222949L654.7109932653257 385.4312332222949L654.7109932653257 318.34397141181097L632.9794635218209 318.34397141181097L632.9794635218209 305.8249684430973L669.9435870414654 305.8249684430973L669.9435870414654 385.1119872449506Q669.9435870414654 401.5531550781794 661.0275029599226 410.9709114098346Q652.1342221624757 420.3886677414899 636.6735955453757 420.3886677414899ZM766.5382984721963 375.3521816518551L766.5382984721963 375.3521816518551Q766.5382984721963 398.10985917968065 756.5276567540444 409.26066510263325Q746.4942117517968 420.3886677414899 727.4078629634299 420.3886677414899L727.4078629634299 420.3886677414899Q708.4127273114472 420.3886677414899 698.7213315706398 408.8045994207129Q689.0071325457362 397.22053109993595 689.0071325457362 375.3521816518551L689.0071325457362 375.3521816518551Q689.0071325457362 352.89094681727767 698.7441348547358 341.67173104203704Q708.5039404478313 330.45251526679635 727.8867319294462 330.45251526679635L727.8867319294462 330.45251526679635Q747.7711956611737 330.45251526679635 757.166148708733 341.3980916328848Q766.5382984721963 352.34366799897333 766.5382984721963 375.3521816518551ZM751.3969178324404 375.3521816518551L751.3969178324404 375.3521816518551Q751.3969178324404 357.3831937841932 746.0609493539724 349.24242136191486Q740.7249808755042 341.1016489396366 728.1375680545026 341.1016489396366L728.1375680545026 341.1016489396366Q715.4817453812128 341.1016489396366 709.8265309254003 349.402044350587Q704.1713164695881 357.7024397615374 704.1713164695881 375.3521816518551L704.1713164695881 375.3521816518551Q704.1713164695881 392.50025129206034 709.7353177890162 401.119892680355Q715.2993191084446 409.7395340686497 727.2482399747579 409.7395340686497L727.2482399747579 409.7395340686497Q740.2461119094879 409.7395340686497 745.8101132289163 401.39353208950723Q751.3969178324404 393.0475301103648 751.3969178324404 375.3521816518551ZM857.8426479926508 375.01013239041487L857.8426479926508 375.01013239041487Q857.8426479926508 397.6994000659524 849.8614985590447 409.05543554576917Q841.9031524095345 420.3886677414899 825.9408535423221 420.3886677414899L825.9408535423221 420.3886677414899Q816.0898348128425 420.3886677414899 809.5452922772855 416.8313554225112Q803.0235530258245 413.2512398194364 798.9189618885413 405.31569695402226L798.9189618885413 405.31569695402226L798.7593388998692 405.31569695402226Q798.7593388998692 406.9347301248395 798.599715911197 409.96756690960984Q798.440092922525 413.02320697847625 798.2804699338527 415.6227813654222Q798.1208469451807 418.2223557523683 797.9612239565084 418.7924378547687L797.9612239565084 418.7924378547687L784.0056140897458 418.7924378547687Q784.2564502148019 416.626125865647 784.370466635282 412.1794854669236Q784.4844830557621 407.7328450682001 784.4844830557621 400.9146631234908L784.4844830557621 400.9146631234908L784.4844830557621 299.8277047258447L798.9189618885413 299.8277047258447L798.9189618885413 333.7361881766229Q798.9189618885413 336.2901559953769 798.8505520362531 339.39140263243524Q798.7593388998692 342.4698459853976 798.599715911197 346.00435502028034L798.599715911197 346.00435502028034L798.9189618885413 346.00435502028034Q802.9323398894404 337.6583530411379 809.5452922772855 334.05543415396716Q816.1582446651306 330.45251526679635 825.9408535423221 330.45251526679635L825.9408535423221 330.45251526679635Q842.3820213755508 330.45251526679635 850.1123346841008 341.5121080533649Q857.8426479926508 352.5717008399335 857.8426479926508 375.01013239041487ZM842.7012673528951 375.51180464052715L842.7012673528951 375.51180464052715Q842.7012673528951 357.3147839319051 837.8897744086354 349.44765091877906Q833.0782814643757 341.5805179056529 822.2467215187672 341.5805179056529L822.2467215187672 341.5805179056529Q810.069767811494 341.5805179056529 804.5057664920656 349.92651988479537Q798.9189618885413 358.2725218639379 798.9189618885413 376.3783294361759L798.9189618885413 376.3783294361759Q798.9189618885413 393.45798922409307 804.3689467874896 401.59876164637143Q809.8189316864376 409.7395340686497 822.0870985300952 409.7395340686497L822.0870985300952 409.7395340686497Q832.9870683279916 409.7395340686497 837.8441678404434 401.66717149865946Q842.7012673528951 393.6176122127652 842.7012673528951 375.51180464052715ZM984.5833009983168 361.78422761472456L984.5833009983168 361.78422761472456Q984.5833009983168 377.6553133455529 979.1789226675606 389.92348018921035Q973.7745443368045 402.1916470328678 963.5814763458847 409.76233735274565Q953.4112116390608 417.35583095671956 939.1363557949538 419.271306820785L939.1363557949538 419.271306820785Q942.4200287047803 429.3731616753209 947.7559971832485 433.86540864223633Q953.0919656617165 438.3576556091518 961.2555413680908 438.3576556091518L961.2555413680908 438.3576556091518Q965.8390014713904 438.3576556091518 970.4908714269781 437.30870454073505L970.4908714269781 437.30870454073505L970.4908714269781 448.04905134995926Q963.1938205162522 449.82770750944866 956.2160155828709 449.82770750944866L956.2160155828709 449.82770750944866Q944.1074717278856 449.82770750944866 936.2859452829515 442.9639189965474Q928.4872221221134 436.10013048364607 923.5161061891816 420.0694217641457L923.5161061891816 420.0694217641457Q907.3029711969131 419.271306820785 895.9241324330002 411.9058460577714Q884.5452936690875 404.51758201066167 878.5252266677388 391.70213634869975Q872.5279629504861 378.86388740264175 872.5279629504861 361.78422761472456L872.5279629504861 361.78422761472456Q872.5279629504861 343.6784200424866 879.2093251906193 330.81736781233263Q885.9134907148485 317.9335122980827 898.4552969676582 311.0469205010853Q910.9971032204679 304.160328704088 928.6468451107856 304.160328704088L928.6468451107856 304.160328704088Q946.4334067056794 304.160328704088 958.929606390297 311.1609369215654Q971.4486093590107 318.1843484231389 978.0159551786638 331.09100722148486Q984.5833009983168 343.9976660198309 984.5833009983168 361.78422761472456ZM968.9630513925448 361.78422761472456L968.9630513925448 361.78422761472456Q968.9630513925448 340.7139931100043 958.4279341401847 328.673859107307Q947.8700136037284 316.6565283887057 928.6468451107856 316.6565283887057L928.6468451107856 316.6565283887057Q909.2412503450745 316.6565283887057 898.6605265245224 328.51423611863487Q888.0798027039701 340.39474713266003 888.0798027039701 361.78422761472456L888.0798027039701 361.78422761472456Q888.0798027039701 375.89946047015945 892.8912956482299 386.27495473384755Q897.7027885924896 396.6732522816316 906.7556923786086 402.328466737444Q915.8085961647276 407.9608779091603 928.4872221221134 407.9608779091603L928.4872221221134 407.9608779091603Q948.0296365924006 407.9608779091603 958.4963439924726 395.897940622367Q968.9630513925448 383.8350033355736 968.9630513925448 361.78422761472456ZM1058.579957889894 403.9703031923572L1058.351925048934 403.9703031923572Q1053.3808091160022 412.93199384209214 1046.8362665804448 416.67173243383905Q1040.3145273289842 420.3886677414899 1030.6003283040804 420.3886677414899L1030.6003283040804 420.3886677414899Q1016.3482757440694 420.3886677414899 1009.7353233562243 413.2968463876285Q1003.1223709683792 406.20502503376696 1003.1223709683792 389.8550703369223L1003.1223709683792 389.8550703369223L1003.1223709683792 332.0487451535176L1017.6252596534465 332.0487451535176L1017.6252596534465 387.05026639311217Q1017.6252596534465 400.0253350437461 1021.6614409384416 404.63159843114175Q1025.7204255075326 409.26066510263325 1035.5030343847243 409.26066510263325L1035.5030343847243 409.26066510263325Q1045.9241352166046 409.26066510263325 1051.9442022179528 402.1232371805798Q1057.9414659352055 394.9858092585262 1057.9414659352055 382.30718330114047L1057.9414659352055 382.30718330114047L1057.9414659352055 332.0487451535176L1072.375944767985 332.0487451535176L1072.375944767985 400.27617116880236Q1072.375944767985 407.80125492048813 1072.4899611884648 412.45312487607583Q1072.626780893041 417.1049948316634 1072.8548137340013 418.7924378547687L1072.8548137340013 418.7924378547687L1059.2412531286786 418.7924378547687Q1059.1500399922948 418.3819787410403 1058.9448104354306 415.0298959789258Q1058.7395808785664 411.65500993271513 1058.579957889894 403.9703031923572L1058.579957889894 403.9703031923572ZM1167.7848854257227 378.47623157300956L1105.8967723891305 378.47623157300956Q1105.8967723891305 393.38957937180504 1112.0536590950555 401.48474522589123Q1118.233349085076 409.57991107997753 1130.0910568150052 409.57991107997753L1130.0910568150052 409.57991107997753Q1139.4860098625645 409.57991107997753 1145.1184210342808 405.7945659200387Q1150.7736354900935 402.0320240441957 1152.780324490543 396.2627931679032L1152.780324490543 396.2627931679032L1165.4589504479286 399.8657120550741Q1157.683030571187 420.3886677414899 1130.0910568150052 420.3886677414899L1130.0910568150052 420.3886677414899Q1110.8678883220628 420.3886677414899 1100.788836751623 408.9414191252891Q1090.7325884652792 397.4713672249922 1090.7325884652792 374.8505094017427L1090.7325884652792 374.8505094017427Q1090.7325884652792 353.3698157832941 1100.788836751623 341.9225671670932Q1110.8678883220628 330.45251526679635 1129.543777996701 330.45251526679635L1129.543777996701 330.45251526679635Q1148.698536637356 330.45251526679635 1158.2303093894911 341.9909770193813Q1167.7848854257227 353.5294387719662 1167.7848854257227 376.537952424848L1167.7848854257227 376.537952424848L1167.7848854257227 378.47623157300956ZM1106.0563953778028 367.393835502345L1152.871537626927 367.393835502345Q1151.6629635698382 353.68906176063837 1145.8937326935456 347.39535535013744Q1140.124501817253 341.1016489396366 1129.2929418716449 341.1016489396366L1129.2929418716449 341.1016489396366Q1118.8034311874767 341.1016489396366 1112.6693477656481 348.12506044121Q1106.535264343819 355.1484719427835 1106.0563953778028 367.393835502345L1106.0563953778028 367.393835502345ZM1251.222101933051 394.8261862698542L1251.222101933051 394.8261862698542Q1251.222101933051 407.09435311351166 1241.963968590068 413.7529120695488Q1232.705835247085 420.3886677414899 1216.0366345728958 420.3886677414899L1216.0366345728958 420.3886677414899Q1199.8463028647234 420.3886677414899 1191.0670384877567 415.07550254711776Q1182.28777411079 409.7395340686497 1179.6425931556519 398.42910515702494L1179.6425931556519 398.42910515702494L1192.3896289653258 395.94354719055906Q1194.236694977103 402.9213521239404 1200.0059258533956 406.1594184655749Q1205.7751567296878 409.4202880913054 1216.0366345728958 409.4202880913054L1216.0366345728958 409.4202880913054Q1227.0278175071762 409.4202880913054 1232.1129498605883 406.0454020450948Q1237.1980822140004 402.67051599888424 1237.1980822140004 395.94354719055906L1237.1980822140004 395.94354719055906Q1237.1980822140004 390.81280826895505 1233.6863764632135 387.5975452114165Q1230.1518674283307 384.40508543797404 1222.2847344152046 382.30718330114047L1222.2847344152046 382.30718330114047Q1212.9809945040297 379.8216253346745 1207.5082063209852 378.2253954479533Q1202.0126148538452 376.6291655612321 1199.0481879213626 375.4661980723352Q1196.0837609888804 374.3032305834383 1194.305104829391 373.25427951502144L1194.305104829391 373.25427951502144Q1189.0147429191152 370.2214427302511 1186.0503159866325 365.7976056156237Q1183.0858890541504 361.39657178509225 1183.0858890541504 354.98884895411135L1183.0858890541504 354.98884895411135Q1183.0858890541504 343.1083379400862 1191.545907453773 336.90584466596937Q1200.0059258533956 330.6805481077566 1216.196257561568 330.6805481077566L1216.196257561568 330.6805481077566Q1230.539523257963 330.6805481077566 1238.9995416575857 335.74287717707244Q1247.4595600572084 340.78240296229234 1249.717085182714 351.93320888524494L1249.717085182714 351.93320888524494L1236.7192132479836 353.5294387719662Q1235.5106391908948 347.7602078956738 1230.265883848811 344.6817645427114Q1225.0211285067267 341.5805179056529 1216.196257561568 341.5805179056529L1216.196257561568 341.5805179056529Q1206.4136486843763 341.5805179056529 1201.7617787287886 344.5677481222313Q1197.109908773201 347.5321750547136 1197.109908773201 353.5294387719662L1197.109908773201 353.5294387719662Q1197.109908773201 357.95327588659364 1199.755089728339 360.7808831144998Q1202.4002706834772 363.631293626502 1209.8569445828753 365.4783596382794L1209.8569445828753 365.4783596382794Q1219.8903895851226 367.89550775245726 1228.943293371242 370.7231149803635Q1237.9961971573607 373.5735254923657 1241.941165305972 376.3783294361759L1241.941165305972 376.3783294361759Q1246.5018221251753 379.66200234600245 1248.8733636711613 384.10864274472584Q1251.222101933051 388.5780864275453 1251.222101933051 394.8261862698542ZM1301.571753217058 407.48200894314397L1301.571753217058 418.15394590008015Q1294.5255384313887 420.0694217641457 1286.9776513956067 420.0694217641457L1286.9776513956067 420.0694217641457Q1278.3352067232158 420.0694217641457 1274.0025827449726 415.1439123994059Q1269.6699587667295 410.2184030346661 1269.6699587667295 400.4357941574745L1269.6699587667295 400.4357941574745L1269.6699587667295 342.56105912178174L1259.6593170485776 342.56105912178174L1259.6593170485776 332.0487451535176L1270.2400408691296 332.0487451535176L1274.481451710989 312.6431503878066L1284.1044375995084 312.6431503878066L1284.1044375995084 332.0487451535176L1300.135146319009 332.0487451535176L1300.135146319009 342.56105912178174L1284.1044375995084 342.56105912178174L1284.1044375995084 397.31174423632007Q1284.1044375995084 403.55984407862894 1286.133929884054 406.0910086132869Q1288.1862254526955 408.6221731479448 1293.2485545220115 408.6221731479448L1293.2485545220115 408.6221731479448Q1295.9621453294376 408.6221731479448 1301.571753217058 407.48200894314397L1301.571753217058 407.48200894314397Z " fill="#fbeaeb" transform="matrix(0.6722641262727364,0,0,0.6722641262727365,0,48.01678056695418)"/></g></svg>